<svg width="2123" height="1742" viewBox="0 0 2123 1742" fill="none" xmlns="http://www.w3.org/2000/svg">
<g filter="url(#filter0_f_3214_1105)">
<path d="M1312.35 600.047C1342.43 600.931 1370.84 614.541 1394.98 630.351C1417.93 645.388 1430.2 669.198 1447.99 688.908C1464.56 707.264 1485.08 722.694 1497.17 743.576C1509.6 765.058 1516.77 788.539 1519.53 812.517C1522.38 837.273 1527.91 864.874 1513.6 886.343C1498.85 908.455 1462.11 910.734 1441.79 929.118C1422.71 946.376 1420.6 975.217 1399 990.011C1377.29 1004.89 1347.81 1006.43 1320.99 1011.89C1292.25 1017.74 1262.29 1031.6 1234.25 1023.55C1205.89 1015.41 1195.92 983.273 1171.02 968.837C1144.96 953.734 1103.04 959.902 1085.4 937.27C1067.91 914.827 1087.83 883.306 1083.4 856.387C1079.24 831.167 1058.82 808.877 1060.05 783.416C1061.3 757.61 1070.02 729.968 1090.41 711.367C1111.18 692.423 1148.06 696.183 1172.44 680.917C1195.41 666.538 1204.1 639.053 1227.66 625.435C1252.79 610.907 1282.28 599.163 1312.35 600.047Z" fill="#7BABEF" fill-opacity="0.7"/>
</g>
<g filter="url(#filter1_f_3214_1105)">
<path d="M788.037 780.04C810.454 780.791 831.622 792.357 849.604 805.791C866.706 818.569 875.851 838.802 889.107 855.551C901.452 871.149 916.747 884.261 925.753 902.006C935.017 920.261 940.358 940.214 942.414 960.59C944.537 981.626 948.659 1005.08 937.993 1023.32C927.007 1042.11 899.627 1044.05 884.485 1059.67C870.27 1074.34 868.695 1098.85 852.605 1111.42C836.427 1124.06 814.458 1125.37 794.472 1130.01C773.057 1134.98 750.735 1146.76 729.839 1139.92C708.707 1133 701.28 1105.69 682.723 1093.43C663.308 1080.59 632.067 1085.83 618.927 1066.6C605.897 1047.53 620.741 1020.74 617.436 997.869C614.34 976.437 599.122 957.496 600.04 935.861C600.97 913.932 607.463 890.442 622.661 874.636C638.139 858.538 665.617 861.733 683.785 848.761C700.898 836.542 707.374 813.186 724.929 801.614C743.657 789.269 765.632 779.289 788.037 780.04Z" fill="#7BABEF"/>
</g>
<defs>
<filter id="filter0_f_3214_1105" x="460" y="0" width="1663" height="1626" filterUnits="userSpaceOnUse" color-interpolation-filters="sRGB">
<feFlood flood-opacity="0" result="BackgroundImageFix"/>
<feBlend mode="normal" in="SourceGraphic" in2="BackgroundImageFix" result="shape"/>
<feGaussianBlur stdDeviation="300" result="effect1_foregroundBlur_3214_1105"/>
</filter>
<filter id="filter1_f_3214_1105" x="0" y="180" width="1545" height="1562" filterUnits="userSpaceOnUse" color-interpolation-filters="sRGB">
<feFlood flood-opacity="0" result="BackgroundImageFix"/>
<feBlend mode="normal" in="SourceGraphic" in2="BackgroundImageFix" result="shape"/>
<feGaussianBlur stdDeviation="300" result="effect1_foregroundBlur_3214_1105"/>
</filter>
</defs>
</svg>
